<?xml version="1.0" encoding="UTF-8"?>
<svg width="160px" height="40px" viewBox="0 0 160 40" version="1.1" xmlns="http://www.w3.org/2000/svg" xmlns:xlink="http://www.w3.org/1999/xlink">
    <!-- Generator: Sketch 51.3 (57544) - http://www.bohemiancoding.com/sketch -->
    <title>Group 10</title>
    <desc>Created with Sketch.</desc>
    <defs></defs>
    <g id="Page-1" stroke="none" stroke-width="1" fill="none" fill-rule="evenodd">
        <g id="Group-10" transform="translate(1.000000, 0.000000)">
            <g id="Group-8">
                <path d="M8.076888,1 C0.0667388827,1 -0.175133339,26.4923563 1.47613201,32.6472625 C3.12739735,38.8021687 9.48070953,40.5590781 12.4443327,37.5921473 C15.407956,34.6252164 16.4334682,28.6913547 18.6835395,28.6913547 C20.9336108,28.6913547 20.087361,36.9328293 22.8950041,37.5921473 C25.7026471,38.2514652 28.5102902,29.6803317 27.418429,27.7023777 C26.3265678,25.7244238 27.1064687,28.6913547 25.0787265,29.6803317 C23.0509843,30.6693086 22.406973,18.655486 18.6835395,18.1422672 C14.960106,17.6290484 14.0041344,28.3616957 10.7285509,27.7023777 C7.45296733,27.0430598 16.0870371,1 8.076888,1 Z" id="Path-2-Copy" stroke="#4A4A4A" stroke-width="1.6" transform="translate(14.159732, 20.000000) scale(-1, 1) translate(-14.159732, -20.000000) "></path>
                <circle id="Oval-2-Copy-2" stroke="#4A4A4A" stroke-width="1.2" fill="#FFFFFF" cx="17.6597323" cy="7" r="4"></circle>
                <circle id="Oval-2-Copy-3" stroke="#4A4A4A" stroke-width="1.2" fill="#FFFFFF" cx="25.6597323" cy="7" r="4"></circle>
                <circle id="Oval-3-Copy-2" fill="#4A4A4A" cx="18.6597323" cy="8" r="1"></circle>
                <circle id="Oval-3-Copy-3" fill="#4A4A4A" cx="24.6597323" cy="8" r="1"></circle>
                <circle id="Oval-3-Copy-4" fill="#FFFFFF" cx="25.1597323" cy="7.5" r="1"></circle>
                <circle id="Oval-3-Copy-5" fill="#FFFFFF" cx="19.1597323" cy="7.5" r="1"></circle>
                <path d="M19.6597323,13 C20.5571682,14.3333333 21.3905016,15 22.1597323,15 C22.9289631,15 23.7622964,14.3333333 24.6597323,13 L19.6597323,13 Z" id="Path-3-Copy" stroke="#4A4A4A" stroke-width="1.2" fill="#4A4A4A" stroke-linecap="round" stroke-linejoin="round"></path>
                <path d="M17.6597323,18 C19.4546041,19.3333333 21.1212708,20 22.6597323,20 C24.1981939,20 25.8648605,19.3333333 27.6597323,18" id="Path-3-Copy-14" stroke="#4A4A4A" stroke-width="1.2" stroke-linecap="round" stroke-linejoin="round"></path>
                <path d="M18.6597323,25 C20.275117,26.3333333 21.775117,27 23.1597323,27 C24.5443477,27 26.0443477,26.3333333 27.6597323,25" id="Path-3-Copy-15" stroke="#4A4A4A" stroke-width="1.2" stroke-linecap="round" stroke-linejoin="round"></path>
                <path d="M1.80192548,25.8388955 C3.98324877,27.1389688 5.72202152,27.7890055 7.01824374,27.7890055 C8.31446597,27.7890055 9.71870671,27.1648985 11.230966,25.9166845" id="Path-3-Copy-16" stroke="#4A4A4A" stroke-width="1.2" stroke-linecap="round" stroke-linejoin="round" transform="translate(6.516446, 26.813950) rotate(79.000000) translate(-6.516446, -26.813950) "></path>
                <path d="M8.11499682,27.1139589 C9.96572451,28.4140323 11.4409735,29.0640689 12.5407437,29.0640689 C13.6405139,29.0640689 14.8319316,28.439962 16.1149968,27.191748" id="Path-3-Copy-17" stroke="#4A4A4A" stroke-width="1.2" stroke-linecap="round" stroke-linejoin="round" transform="translate(12.114997, 28.089014) rotate(97.000000) translate(-12.114997, -28.089014) "></path>
                <path d="M4.6759315,22.610232 C6.75800014,23.9103053 8.4176552,24.560342 9.65489668,24.560342 C10.8921382,24.560342 12.2324831,23.936235 13.6759315,22.688021" id="Path-3-Copy-18" stroke="#4A4A4A" stroke-width="1.2" stroke-linecap="round" stroke-linejoin="round" transform="translate(9.175931, 23.585287) rotate(97.000000) translate(-9.175931, -23.585287) "></path>
                <path d="M0,31.6081313 C1.61538462,32.9414647 3.11538462,33.6081313 4.5,33.6081313 C5.88461538,33.6081313 7.38461538,32.9414647 9,31.6081313" id="Path-3-Copy-19" stroke="#4A4A4A" stroke-width="1.2" stroke-linecap="round" stroke-linejoin="round" transform="translate(4.500000, 32.608131) rotate(79.000000) translate(-4.500000, -32.608131) "></path>
                <path d="M11.190809,32.5897585 C13.165168,33.9230918 14.9985013,34.5897585 16.690809,34.5897585 C18.3831167,34.5897585 20.21645,33.9230918 22.190809,32.5897585" id="Path-3-Copy-20" stroke="#4A4A4A" stroke-width="1.2" stroke-linecap="round" stroke-linejoin="round" transform="translate(16.690809, 33.589759) rotate(79.000000) translate(-16.690809, -33.589759) "></path>
                <path d="M17.4608012,35.0022471 C19.5512616,34.729447 21.3781159,34.0658348 22.9413641,33.0114105 C24.5046124,31.9569863 25.4770455,30.448147 25.8586635,28.4848926" id="Path-3-Copy-21" stroke="#4A4A4A" stroke-width="1.2" stroke-linecap="round" stroke-linejoin="round" transform="translate(21.659732, 31.743570) rotate(79.000000) translate(-21.659732, -31.743570) "></path>
                <path d="M11.623548,1.90677904 C12.2244848,2.3531892 12.7824975,2.57639428 13.2975861,2.57639428 C13.8126748,2.57639428 14.3706875,2.3531892 14.9716242,1.90677904" id="Path-3-Copy-22" stroke="#4A4A4A" stroke-width="1.2" stroke-linecap="round" stroke-linejoin="round" transform="translate(13.297586, 2.406779) rotate(143.000000) translate(-13.297586, -2.406779) "></path>
                <path d="M24.7321004,0.416235857 C25.3330372,0.862646019 25.8910499,1.0858511 26.4061385,1.0858511 C26.9212271,1.0858511 27.4792399,0.862646019 28.0801766,0.416235857" id="Path-3-Copy-23" stroke="#4A4A4A" stroke-width="1.2" stroke-linecap="round" stroke-linejoin="round" transform="translate(26.406139, 0.916236) scale(-1, 1) rotate(-195.000000) translate(-26.406139, -0.916236) "></path>
            </g>
            <path d="M40.704,29 L40.704,12.992 L47.208,12.992 C49.224,12.992 50.376,13.208 51.408,13.808 C52.536,14.48 53.232,15.728 53.232,17.072 C53.232,18.608 52.512,19.688 50.976,20.432 C52.824,21.32 53.616,22.496 53.616,24.344 C53.616,25.856 53.016,27.152 51.96,27.944 C50.928,28.736 49.8,29 47.52,29 L40.704,29 Z M44.232,19.208 L47.664,19.208 C48.96,19.208 49.632,18.68 49.632,17.624 C49.632,16.592 48.96,16.064 47.664,16.064 L44.232,16.064 L44.232,19.208 Z M44.232,25.928 L47.616,25.928 C49.128,25.928 49.944,25.256 49.944,23.984 C49.944,22.712 49.128,22.04 47.616,22.04 L44.232,22.04 L44.232,25.928 Z M63.576,12.632 C68.4,12.632 71.52,15.968 71.52,21.128 C71.52,26 68.28,29.36 63.6,29.36 C58.848,29.36 55.656,26 55.656,20.984 C55.656,18.368 56.544,16.112 58.128,14.672 C59.592,13.328 61.464,12.632 63.576,12.632 Z M63.576,15.68 C60.984,15.68 59.424,17.672 59.424,20.984 C59.424,24.32 60.984,26.312 63.6,26.312 C66.168,26.312 67.752,24.32 67.752,21.056 C67.752,17.672 66.216,15.68 63.576,15.68 Z M81.528,12.632 C86.352,12.632 89.472,15.968 89.472,21.128 C89.472,26 86.232,29.36 81.552,29.36 C76.8,29.36 73.608,26 73.608,20.984 C73.608,18.368 74.496,16.112 76.08,14.672 C77.544,13.328 79.416,12.632 81.528,12.632 Z M81.528,15.68 C78.936,15.68 77.376,17.672 77.376,20.984 C77.376,24.32 78.936,26.312 81.552,26.312 C84.12,26.312 85.704,24.32 85.704,21.056 C85.704,17.672 84.168,15.68 81.528,15.68 Z M99.648,19.304 L106.416,29 L102.096,29 L97.248,21.752 L95.76,23.264 L95.76,29 L92.232,29 L92.232,12.992 L95.76,12.992 L95.76,18.896 L101.16,12.992 L105.888,12.992 L99.648,19.304 Z M112.536,29 L110.76,29 L106.536,12.992 L108.168,12.992 L110.496,22.472 C110.976,24.464 111.552,26.84 111.648,27.296 C111.696,27.08 111.744,26.888 111.816,26.648 L112.872,22.472 L115.344,12.992 L117.168,12.992 L119.688,22.304 C119.976,23.312 120.24,24.32 120.504,25.328 C120.72,26.12 120.84,26.528 121.056,27.296 C121.2,26.6 121.368,25.904 121.536,25.232 C121.752,24.272 121.968,23.36 122.16,22.472 L124.368,12.992 L125.952,12.992 L121.944,29 L120.144,29 L117.288,18.632 C116.712,16.424 116.592,15.944 116.208,14.672 C115.92,15.872 115.56,17.264 115.152,18.896 L112.536,29 Z M129.816,21.752 L129.816,29 L128.208,29 L128.208,12.992 L134.928,12.992 C136.752,12.992 137.76,13.256 138.648,13.976 C139.536,14.696 139.968,15.776 139.968,17.192 C139.968,19.112 139.224,20.264 137.448,21.08 C138.768,21.632 139.344,22.64 139.488,24.632 L139.632,26.72 C139.728,27.944 139.92,28.376 140.616,29 L138.504,29 C138.24,28.4 138.144,27.944 138.072,27.176 L137.928,25.352 C137.712,22.592 136.968,21.752 134.784,21.752 L129.816,21.752 Z M129.816,20.48 L134.64,20.48 C136.104,20.48 136.896,20.264 137.496,19.712 C138.096,19.184 138.408,18.368 138.408,17.408 C138.408,16.472 138.096,15.656 137.496,15.128 C136.896,14.576 136.128,14.36 134.64,14.36 L129.816,14.36 L129.816,20.48 Z M151.704,29 L150.216,29 L144.984,15.104 C145.08,17.84 145.128,20.96 145.128,23.72 L145.128,29 L143.616,29 L143.616,12.992 L145.632,12.992 L150.984,27.272 L156.384,12.992 L158.328,12.992 L158.328,29 L156.816,29 L156.816,24.752 C156.816,20.936 156.864,17.144 156.936,15.272 L151.704,29 Z" id="BookWRM" fill="#4A4A4A"></path>
        </g>
    </g>
</svg>